<svg width="21" height="20" fill="none" xmlns="http://www.w3.org/2000/svg"><path fill-rule="evenodd" clip-rule="evenodd" d="M10.004 19a9 9 0 100-18 9 9 0 000 18zm0 1c5.523 0 10-4.477 10-10s-4.477-10-10-10-10 4.477-10 10 4.477 10 10 10zM6.994 5.172a.4.4 0 01.566 0L9.378 6.99a.4.4 0 11-.566.566L7.277 6.02 5.74 7.556a.4.4 0 11-.565-.566l1.818-1.818zm6.02 0a.4.4 0 00-.566 0L10.63 6.99a.4.4 0 00.566.566L12.73 6.02l1.536 1.536a.4.4 0 00.565-.566l-1.818-1.818zm-7.9 4.625a.4.4 0 01.345-.197h9.09a.4.4 0 01.35.594l-2.797 5.035c-.914 1.646-3.281 1.646-4.196 0L5.11 10.194a.4.4 0 01.005-.397zm3.178 4.48l.313.564c.61 1.097 2.188 1.097 2.798 0l.313-.564a.408.408 0 01-.048-.06l-1.16-1.793a.6.6 0 00-1.008 0l-1.16 1.793a.404.404 0 01-.048.06zm-.436-.785l.972-1.503a1.4 1.4 0 012.351 0l.973 1.503L13.87 10.4H6.138l1.718 3.092z" fill="#6E6E86"/></svg>