<svg width="25" height="22" fill="none" xmlns="http://www.w3.org/2000/svg"><path fill-rule="evenodd" clip-rule="evenodd" d="M4.286 2.496a.5.5 0 01.5-.5h17.72a.5.5 0 01.5.5v13.651a.5.5 0 01-.5.5H20.72V5.85a1.5 1.5 0 00-1.5-1.5H4.286V2.496zm-1 1.854V2.496a1.5 1.5 0 011.5-1.5h17.72a1.5 1.5 0 011.5 1.5v13.651a1.5 1.5 0 01-1.5 1.5H20.72v1.854a1.5 1.5 0 01-1.5 1.5H1.5a1.5 1.5 0 01-1.5-1.5V5.851a1.5 1.5 0 011.5-1.5h1.786zM1 5.85a.5.5 0 01.5-.5h17.72a.5.5 0 01.5.5v8.741l-5.743.977a.6.6 0 01-.438-.096L7.788 11.56a1.4 1.4 0 00-1.424-.09L1 14.209V5.85zm0 9.256V19.5a.5.5 0 00.5.5h17.72a.5.5 0 00.5-.5v-4.099l-5.61.955a1.4 1.4 0 01-1.021-.223l-5.751-3.912a.6.6 0 00-.61-.039L1 15.106zm12.647-7.62c-.982 0-1.791.815-1.791 1.836 0 1.022.81 1.836 1.79 1.836.982 0 1.792-.814 1.792-1.836 0-1.021-.81-1.836-1.791-1.836zm-2.591 1.836c0-1.448 1.152-2.636 2.59-2.636 1.44 0 2.592 1.188 2.592 2.636 0 1.448-1.153 2.636-2.591 2.636-1.439 0-2.591-1.188-2.591-2.636z" fill="#6E6E86"/></svg>