<svg width="38" height="38" fill="none" xmlns="http://www.w3.org/2000/svg"><g clip-path="url(#clip0_56_1511)" fill="#31CAF8"><path d="M.518 19.05a.792.792 0 00-.47 1.013l.497 1.368 3.785-3.786-3.812 1.404zM4.1 31.209l2.28 6.27a.797.797 0 001.018.472l2.516-.928-5.813-5.814zm33.852-5.353l-2.61-7.174-6.261 6.262 3.103-1.143a.788.788 0 011.016.469.79.79 0 01-.468 1.016l-3.943 1.453a.791.791 0 01-1.017-.469v-.014l-6.636 6.636 16.345-6.023a.79.79 0 00.47-1.013zm-.185-12.958L25.101.232a.792.792 0 00-1.12 0L.234 23.982a.792.792 0 000 1.119L12.9 37.767a.795.795 0 001.12.002l23.748-23.75a.794.794 0 000-1.12zM9.268 21.936l-3.166 3.166a.795.795 0 01-1.121 0 .792.792 0 010-1.12l3.166-3.166a.792.792 0 011.121 1.12zM22.94 22.94c-.56.56-1.322.83-2.17.83-1.399 0-3.034-.733-4.402-2.103-1-1-1.704-2.198-1.978-3.37-.304-1.305-.054-2.442.705-3.202.758-.76 1.895-1.01 3.203-.705 1.171.274 2.368.976 3.369 1.978 2.2 2.197 2.76 5.085 1.273 6.572zm10.078-8.922l-3.167 3.167a.795.795 0 01-1.121 0 .792.792 0 010-1.12l3.167-3.166a.792.792 0 011.12 1.12z"/></g><defs><clipPath id="clip0_56_1511"><path fill="#fff" d="M0 0h38v38H0z"/></clipPath></defs></svg>