<svg width="17" height="16" fill="none" xmlns="http://www.w3.org/2000/svg"><path d="M16.931 6.93a1.402 1.402 0 00-.663-1.026 1.363 1.363 0 00-1.196-.107.68.68 0 01-.85-.385 6.377 6.377 0 00-.632-1.106.686.686 0 01.095-.937 1.404 1.404 0 00-.058-2.186A8.476 8.476 0 0011.8.113a1.384 1.384 0 00-1.22.062 1.37 1.37 0 00-.69.982.677.677 0 01-.761.55 6.02 6.02 0 00-1.258 0 .677.677 0 01-.761-.55A1.384 1.384 0 005.2.113a8.47 8.47 0 00-1.834 1.066 1.404 1.404 0 00-.554 1.092c-.01.423.175.827.5 1.095.275.237.316.65.094.937a6.36 6.36 0 00-.631 1.106.682.682 0 01-.858.38 1.358 1.358 0 00-1.188.11c-.366.223-.61.603-.66 1.032a8.346 8.346 0 000 2.142A1.4 1.4 0 00.732 10.1c.361.219.802.258 1.196.107a.68.68 0 01.85.384c.173.39.385.76.632 1.106.221.288.18.7-.095.937a1.404 1.404 0 00.058 2.186 8.48 8.48 0 001.833 1.067c.394.17.844.147 1.22-.062a1.37 1.37 0 00.69-.982.679.679 0 01.761-.55c.418.044.84.044 1.258 0a.679.679 0 01.761.55 1.38 1.38 0 001.91 1.044 8.473 8.473 0 001.833-1.066c.341-.26.546-.662.554-1.092a1.38 1.38 0 00-.5-1.095.686.686 0 01-.095-.937c.248-.346.46-.716.632-1.106.14-.333.511-.5.85-.384h.009c.391.149.83.108 1.188-.11.361-.223.602-.6.654-1.024a8.455 8.455 0 000-2.148v.006zM8.5 11.573c-1.957 0-3.543-1.599-3.543-3.57 0-1.972 1.586-3.57 3.543-3.57s3.543 1.598 3.543 3.57c-.003 1.97-1.587 3.567-3.543 3.57z" fill="#6E6E86"/></svg>