<svg width="170" height="22" viewBox="0 0 170 22" fill="none" xmlns="http://www.w3.org/2000/svg">
<g filter="url(#filter0_d_1963_1591)">
<mask id="path-1-outside-1_1963_1591" maskUnits="userSpaceOnUse" x="5" y="5" width="160" height="12" fill="black">
<rect fill="white" x="5" y="5" width="160" height="12"/>
<path fill-rule="evenodd" clip-rule="evenodd" d="M19.7919 8.67071C19.7706 8.36607 19.6926 8.06925 19.5627 7.79812C19.4327 7.52699 19.2535 7.28715 19.0358 7.09304C18.4815 6.5826 17.6041 6.32737 16.4038 6.32737H7.52122L6 15.6766H9.49415L9.81941 13.6779H15.2078C16.2164 13.7314 17.2176 13.4655 18.0892 12.9127C18.646 12.5332 19.0876 11.9845 19.3588 11.335C19.5289 10.9078 19.6501 10.4596 19.7196 10.0004C19.7978 9.56308 19.8221 9.11644 19.7919 8.67219V8.67071ZM10.55 9.18592H15.1323C15.312 9.1552 15.4957 9.16565 15.6714 9.2166C15.8472 9.26756 16.0111 9.35788 16.1526 9.48174C16.1948 9.55849 16.2224 9.6436 16.2338 9.73208C16.2452 9.82055 16.2402 9.9106 16.2191 9.99695C16.1955 10.194 16.1131 10.3772 15.9843 10.5186C15.6548 10.755 15.2596 10.8596 14.8666 10.8144H10.2843L10.55 9.18592ZM33.7653 7.37012C33.3326 6.6743 32.4015 6.32655 30.9722 6.32688H21.6766L20.1554 15.6761H23.65L24.0594 13.1617H28.0171C28.3683 13.1474 28.7195 13.1885 29.0598 13.2834C29.1735 13.3239 29.2705 13.4066 29.3338 13.5168C29.397 13.6271 29.4224 13.7579 29.4055 13.8864C29.4022 14.1148 29.382 14.3424 29.345 14.5673C29.3087 14.7809 29.2891 14.9974 29.2863 15.2146C29.281 15.2987 29.2918 15.3831 29.3182 15.4623C29.3446 15.5416 29.386 15.6141 29.4396 15.6751H33.4528C33.2725 15.4961 33.1599 15.2511 33.1366 14.9873C33.0875 14.4111 33.1135 13.8301 33.214 13.2617C33.2796 12.891 33.2169 12.507 33.0377 12.1833C32.8585 11.8596 32.5755 11.6188 32.2428 11.5071C32.704 11.3202 33.1119 11.0053 33.4257 10.594C33.7396 10.1827 33.9483 9.68936 34.031 9.16324C34.0743 8.87886 34.0895 8.5903 34.0765 8.30242C34.0529 7.96557 33.8966 7.57327 33.7172 7.29704L33.7653 7.37012ZM30.4163 9.74156C30.3916 9.8468 30.3426 9.9435 30.2739 10.0226C30.1609 10.1506 30.0201 10.246 29.8645 10.3002C29.6153 10.3894 29.3534 10.4296 29.0911 10.419H24.5052L24.7254 9.06415H29.3141C29.6714 9.01134 30.0342 9.10028 30.3358 9.3146C30.3793 9.37384 30.4093 9.44341 30.4233 9.51761C30.4373 9.59181 30.4349 9.66856 30.4163 9.74156ZM38.6715 12.004H46.8917L47.227 9.94468H39.0068L39.1501 9.06415H47.8452L48.2906 6.32688H36.099L34.5796 15.6761H46.8694L47.3157 12.9324H38.5205L38.6715 12.004ZM58.8917 15.3408C59.8032 15.0409 60.6227 14.4793 61.2634 13.7154C61.9042 12.9516 62.3422 12.014 62.531 11.0022C62.6497 10.3953 62.6317 9.76627 62.4788 9.1684C62.3258 8.57054 62.0423 8.02137 61.6521 7.56733C61.2775 7.15183 60.8152 6.84134 60.3051 6.66263C59.721 6.43785 59.1054 6.32442 58.4855 6.32737H50.0752L48.5539 15.6766L56.9438 15.7106L56.962 15.6766C57.6174 15.6732 58.2683 15.56 58.8917 15.3408ZM58.2144 12.4714C57.8973 12.6979 57.5256 12.818 57.1458 12.8165H52.5135L53.1048 9.18543H57.7345C58.0806 9.17193 58.4199 9.29195 58.692 9.52414C58.8676 9.71374 58.9916 9.95198 59.0507 10.2128C59.1097 10.4737 59.1015 10.7471 59.0268 11.0032C58.9957 11.2969 58.9069 11.5801 58.7664 11.8335C58.626 12.087 58.4372 12.305 58.2126 12.4729L58.2144 12.4714ZM63.0596 15.6761H66.5542L68.0754 6.32688H64.5808L63.0596 15.6761ZM78.0443 8.94878C78.3474 9.00273 78.6356 9.1294 78.8877 9.31953C79.1116 9.52349 79.2566 9.81122 79.2939 10.1256H83.2198C83.2614 9.50563 83.145 8.88517 82.8833 8.33201C82.6216 7.77885 82.2247 7.31427 81.7359 6.98901C80.6669 6.35999 79.4686 6.03371 78.2522 6.04043C77.6523 6.01315 77.144 5.99968 76.7273 6.00001C76.3106 6.00033 75.7958 6.01381 75.1829 6.04043C73.8709 6.06114 72.578 6.38451 71.3904 6.98901C70.6766 7.37438 70.0587 7.93977 69.5884 8.63768C69.1181 9.33559 68.8092 10.1456 68.6877 10.9998C68.3945 12.8016 68.8603 14.1385 70.0852 15.0105C71.1548 15.6383 72.353 15.9643 73.5694 15.9586C74.1729 15.9859 74.6831 15.9995 75.1001 15.9995C75.5171 15.9995 76.03 15.9859 76.6386 15.9586C77.9506 15.9391 79.2435 15.6159 80.4307 15.0105C81.0203 14.6953 81.5457 14.2554 81.9759 13.7166C82.4061 13.1778 82.7324 12.5511 82.9355 11.8734H79.0096C78.8561 12.2012 78.6254 12.4793 78.3409 12.6795C77.7738 13.041 76.8442 13.2218 75.5523 13.2218C75.4007 13.2218 75.1438 13.2128 74.7817 13.1947C74.4106 13.1756 74.0412 13.128 73.6763 13.0522C73.3626 13.0018 73.0636 12.8743 72.8024 12.6795C72.6513 12.5478 72.537 12.3732 72.4721 12.1751C72.4082 11.9792 72.3752 11.773 72.3743 11.5653C72.3717 11.3759 72.3846 11.1866 72.413 10.9998C72.4781 10.5762 72.6291 10.1736 72.8552 9.82094C72.9859 9.6188 73.1538 9.44811 73.3483 9.31953C73.9205 8.95371 74.8963 8.7708 76.2756 8.7708C76.4273 8.7708 76.6717 8.77984 77.0089 8.79791C77.3568 8.82227 77.7028 8.87268 78.0443 8.94878ZM88.7697 9.18592L87.7129 15.6761H91.2075L92.2634 9.18592H97.0267L97.4921 6.32639H84.4717L84.0063 9.18592H88.7697ZM114.943 15.6761H119.126L124.153 6.32688H120.34L117.438 12.3294L116.721 6.32688H113.309L110.638 12.3294L109.683 6.32688H105.876L107.856 15.6761H112.038L114.364 10.3307L114.943 15.6761ZM124.636 15.6761L125.418 14.477H130.669L131.056 15.6761H135.3L131.59 6.31998H127.153L120.393 15.6761H124.637H124.636ZM127.196 11.7319L128.925 9.06957L129.786 11.7319H127.198H127.196ZM149.6 7.36864C149.168 6.67282 148.237 6.32507 146.807 6.3254H137.512L135.991 15.6746H139.485L139.895 13.1602H143.852C144.204 13.146 144.555 13.187 144.895 13.282C145.009 13.3226 145.106 13.4052 145.169 13.5154C145.232 13.6256 145.258 13.7564 145.241 13.8849C145.238 14.1133 145.217 14.341 145.18 14.5658C145.144 14.7794 145.124 14.996 145.122 15.2131C145.116 15.2972 145.127 15.3816 145.154 15.4609C145.18 15.5402 145.221 15.6127 145.275 15.6736H149.288C149.107 15.4952 148.994 15.25 148.97 14.9858C148.921 14.4096 148.947 13.8287 149.047 13.2603C149.113 12.8896 149.05 12.5056 148.871 12.1819C148.692 11.8581 148.409 11.6174 148.077 11.5056C148.538 11.3186 148.945 11.0037 149.259 10.5924C149.573 10.1811 149.782 9.68781 149.864 9.16177C149.907 8.87736 149.923 8.58882 149.91 8.30095C149.886 7.96405 149.779 7.64037 149.599 7.3642L149.6 7.36864ZM146.252 9.74008C146.227 9.84536 146.178 9.94207 146.109 10.0211C145.996 10.149 145.855 10.2444 145.7 10.2987C145.45 10.3878 145.189 10.4281 144.926 10.4175H140.34L140.561 9.06267H145.149C145.507 9.00987 145.87 9.09881 146.171 9.31312C146.215 9.37237 146.245 9.44193 146.259 9.51613C146.273 9.59034 146.27 9.66707 146.252 9.74008ZM153.923 6.52162C153.336 6.70652 152.785 7.00738 152.298 7.40907C151.812 7.80038 151.454 8.34843 151.274 8.97442C150.933 10.2477 151.321 11.115 152.439 11.5761C153.05 11.7737 153.678 11.902 154.314 11.9587C155.14 12.0573 156.1 12.151 157.194 12.2397C157.219 12.2398 157.243 12.2421 157.268 12.2466C157.89 12.2753 158.51 12.3489 159.123 12.467C159.433 12.5459 159.572 12.6801 159.542 12.8698C159.52 12.9416 159.484 13.0074 159.436 13.0624C159.388 13.1174 159.33 13.1604 159.265 13.1883C159.012 13.3149 158.741 13.395 158.463 13.4254C157.972 13.4922 157.476 13.5217 156.98 13.5137C156.33 13.5381 155.679 13.4687 155.045 13.3071C154.613 13.1691 154.426 12.924 154.483 12.572H150.364C150.294 12.8998 150.303 13.2414 150.39 13.5645C150.479 13.8296 150.613 14.0743 150.785 14.2858C151.108 14.7002 151.514 15.0284 151.973 15.2447C152.467 15.4824 152.987 15.6541 153.52 15.756C154.059 15.8629 154.604 15.9307 155.152 15.9591C155.689 15.9864 156.164 16 156.577 16C157.232 16 157.965 15.9671 158.778 15.9014C159.545 15.845 160.303 15.6915 161.037 15.4439C161.351 15.3297 161.657 15.1928 161.954 15.0342C162.266 14.8682 162.56 14.6671 162.833 14.4342C163.107 14.2013 163.346 13.9237 163.542 13.6113C163.743 13.2858 163.878 12.9173 163.936 12.5306C164.041 12.0565 164.016 11.5593 163.863 11.1008C163.703 10.7294 163.423 10.435 163.075 10.274C162.605 10.052 162.108 9.90373 161.6 9.83376C160.629 9.68486 159.544 9.56736 158.344 9.48125C157.533 9.41814 156.747 9.34369 155.986 9.2579C155.636 9.23095 155.476 9.12709 155.506 8.94631C155.559 8.82867 155.643 8.73095 155.748 8.66575C155.853 8.60054 155.973 8.57085 156.093 8.58049C156.582 8.50838 157.075 8.47657 157.568 8.48534C158.091 8.47676 158.613 8.52633 159.126 8.63324C159.548 8.73185 159.743 8.87532 159.713 9.06365H163.832C163.84 8.58785 163.687 8.12528 163.403 7.76257C162.97 7.19173 162.391 6.77219 161.739 6.55663C161.157 6.35138 160.557 6.20837 159.949 6.12967C159.294 6.04277 158.634 5.9998 157.973 6.00099C157.289 6.00099 156.6 6.03715 155.905 6.10946C155.235 6.18101 154.572 6.31932 153.925 6.52261L153.923 6.52162Z"/>
</mask>
<path fill-rule="evenodd" clip-rule="evenodd" d="M19.7919 8.67071C19.7706 8.36607 19.6926 8.06925 19.5627 7.79812C19.4327 7.52699 19.2535 7.28715 19.0358 7.09304C18.4815 6.5826 17.6041 6.32737 16.4038 6.32737H7.52122L6 15.6766H9.49415L9.81941 13.6779H15.2078C16.2164 13.7314 17.2176 13.4655 18.0892 12.9127C18.646 12.5332 19.0876 11.9845 19.3588 11.335C19.5289 10.9078 19.6501 10.4596 19.7196 10.0004C19.7978 9.56308 19.8221 9.11644 19.7919 8.67219V8.67071ZM10.55 9.18592H15.1323C15.312 9.1552 15.4957 9.16565 15.6714 9.2166C15.8472 9.26756 16.0111 9.35788 16.1526 9.48174C16.1948 9.55849 16.2224 9.6436 16.2338 9.73208C16.2452 9.82055 16.2402 9.9106 16.2191 9.99695C16.1955 10.194 16.1131 10.3772 15.9843 10.5186C15.6548 10.755 15.2596 10.8596 14.8666 10.8144H10.2843L10.55 9.18592ZM33.7653 7.37012C33.3326 6.6743 32.4015 6.32655 30.9722 6.32688H21.6766L20.1554 15.6761H23.65L24.0594 13.1617H28.0171C28.3683 13.1474 28.7195 13.1885 29.0598 13.2834C29.1735 13.3239 29.2705 13.4066 29.3338 13.5168C29.397 13.6271 29.4224 13.7579 29.4055 13.8864C29.4022 14.1148 29.382 14.3424 29.345 14.5673C29.3087 14.7809 29.2891 14.9974 29.2863 15.2146C29.281 15.2987 29.2918 15.3831 29.3182 15.4623C29.3446 15.5416 29.386 15.6141 29.4396 15.6751H33.4528C33.2725 15.4961 33.1599 15.2511 33.1366 14.9873C33.0875 14.4111 33.1135 13.8301 33.214 13.2617C33.2796 12.891 33.2169 12.507 33.0377 12.1833C32.8585 11.8596 32.5755 11.6188 32.2428 11.5071C32.704 11.3202 33.1119 11.0053 33.4257 10.594C33.7396 10.1827 33.9483 9.68936 34.031 9.16324C34.0743 8.87886 34.0895 8.5903 34.0765 8.30242C34.0529 7.96557 33.8966 7.57327 33.7172 7.29704L33.7653 7.37012ZM30.4163 9.74156C30.3916 9.8468 30.3426 9.9435 30.2739 10.0226C30.1609 10.1506 30.0201 10.246 29.8645 10.3002C29.6153 10.3894 29.3534 10.4296 29.0911 10.419H24.5052L24.7254 9.06415H29.3141C29.6714 9.01134 30.0342 9.10028 30.3358 9.3146C30.3793 9.37384 30.4093 9.44341 30.4233 9.51761C30.4373 9.59181 30.4349 9.66856 30.4163 9.74156ZM38.6715 12.004H46.8917L47.227 9.94468H39.0068L39.1501 9.06415H47.8452L48.2906 6.32688H36.099L34.5796 15.6761H46.8694L47.3157 12.9324H38.5205L38.6715 12.004ZM58.8917 15.3408C59.8032 15.0409 60.6227 14.4793 61.2634 13.7154C61.9042 12.9516 62.3422 12.014 62.531 11.0022C62.6497 10.3953 62.6317 9.76627 62.4788 9.1684C62.3258 8.57054 62.0423 8.02137 61.6521 7.56733C61.2775 7.15183 60.8152 6.84134 60.3051 6.66263C59.721 6.43785 59.1054 6.32442 58.4855 6.32737H50.0752L48.5539 15.6766L56.9438 15.7106L56.962 15.6766C57.6174 15.6732 58.2683 15.56 58.8917 15.3408ZM58.2144 12.4714C57.8973 12.6979 57.5256 12.818 57.1458 12.8165H52.5135L53.1048 9.18543H57.7345C58.0806 9.17193 58.4199 9.29195 58.692 9.52414C58.8676 9.71374 58.9916 9.95198 59.0507 10.2128C59.1097 10.4737 59.1015 10.7471 59.0268 11.0032C58.9957 11.2969 58.9069 11.5801 58.7664 11.8335C58.626 12.087 58.4372 12.305 58.2126 12.4729L58.2144 12.4714ZM63.0596 15.6761H66.5542L68.0754 6.32688H64.5808L63.0596 15.6761ZM78.0443 8.94878C78.3474 9.00273 78.6356 9.1294 78.8877 9.31953C79.1116 9.52349 79.2566 9.81122 79.2939 10.1256H83.2198C83.2614 9.50563 83.145 8.88517 82.8833 8.33201C82.6216 7.77885 82.2247 7.31427 81.7359 6.98901C80.6669 6.35999 79.4686 6.03371 78.2522 6.04043C77.6523 6.01315 77.144 5.99968 76.7273 6.00001C76.3106 6.00033 75.7958 6.01381 75.1829 6.04043C73.8709 6.06114 72.578 6.38451 71.3904 6.98901C70.6766 7.37438 70.0587 7.93977 69.5884 8.63768C69.1181 9.33559 68.8092 10.1456 68.6877 10.9998C68.3945 12.8016 68.8603 14.1385 70.0852 15.0105C71.1548 15.6383 72.353 15.9643 73.5694 15.9586C74.1729 15.9859 74.6831 15.9995 75.1001 15.9995C75.5171 15.9995 76.03 15.9859 76.6386 15.9586C77.9506 15.9391 79.2435 15.6159 80.4307 15.0105C81.0203 14.6953 81.5457 14.2554 81.9759 13.7166C82.4061 13.1778 82.7324 12.5511 82.9355 11.8734H79.0096C78.8561 12.2012 78.6254 12.4793 78.3409 12.6795C77.7738 13.041 76.8442 13.2218 75.5523 13.2218C75.4007 13.2218 75.1438 13.2128 74.7817 13.1947C74.4106 13.1756 74.0412 13.128 73.6763 13.0522C73.3626 13.0018 73.0636 12.8743 72.8024 12.6795C72.6513 12.5478 72.537 12.3732 72.4721 12.1751C72.4082 11.9792 72.3752 11.773 72.3743 11.5653C72.3717 11.3759 72.3846 11.1866 72.413 10.9998C72.4781 10.5762 72.6291 10.1736 72.8552 9.82094C72.9859 9.6188 73.1538 9.44811 73.3483 9.31953C73.9205 8.95371 74.8963 8.7708 76.2756 8.7708C76.4273 8.7708 76.6717 8.77984 77.0089 8.79791C77.3568 8.82227 77.7028 8.87268 78.0443 8.94878ZM88.7697 9.18592L87.7129 15.6761H91.2075L92.2634 9.18592H97.0267L97.4921 6.32639H84.4717L84.0063 9.18592H88.7697ZM114.943 15.6761H119.126L124.153 6.32688H120.34L117.438 12.3294L116.721 6.32688H113.309L110.638 12.3294L109.683 6.32688H105.876L107.856 15.6761H112.038L114.364 10.3307L114.943 15.6761ZM124.636 15.6761L125.418 14.477H130.669L131.056 15.6761H135.3L131.59 6.31998H127.153L120.393 15.6761H124.637H124.636ZM127.196 11.7319L128.925 9.06957L129.786 11.7319H127.198H127.196ZM149.6 7.36864C149.168 6.67282 148.237 6.32507 146.807 6.3254H137.512L135.991 15.6746H139.485L139.895 13.1602H143.852C144.204 13.146 144.555 13.187 144.895 13.282C145.009 13.3226 145.106 13.4052 145.169 13.5154C145.232 13.6256 145.258 13.7564 145.241 13.8849C145.238 14.1133 145.217 14.341 145.18 14.5658C145.144 14.7794 145.124 14.996 145.122 15.2131C145.116 15.2972 145.127 15.3816 145.154 15.4609C145.18 15.5402 145.221 15.6127 145.275 15.6736H149.288C149.107 15.4952 148.994 15.25 148.97 14.9858C148.921 14.4096 148.947 13.8287 149.047 13.2603C149.113 12.8896 149.05 12.5056 148.871 12.1819C148.692 11.8581 148.409 11.6174 148.077 11.5056C148.538 11.3186 148.945 11.0037 149.259 10.5924C149.573 10.1811 149.782 9.68781 149.864 9.16177C149.907 8.87736 149.923 8.58882 149.91 8.30095C149.886 7.96405 149.779 7.64037 149.599 7.3642L149.6 7.36864ZM146.252 9.74008C146.227 9.84536 146.178 9.94207 146.109 10.0211C145.996 10.149 145.855 10.2444 145.7 10.2987C145.45 10.3878 145.189 10.4281 144.926 10.4175H140.34L140.561 9.06267H145.149C145.507 9.00987 145.87 9.09881 146.171 9.31312C146.215 9.37237 146.245 9.44193 146.259 9.51613C146.273 9.59034 146.27 9.66707 146.252 9.74008ZM153.923 6.52162C153.336 6.70652 152.785 7.00738 152.298 7.40907C151.812 7.80038 151.454 8.34843 151.274 8.97442C150.933 10.2477 151.321 11.115 152.439 11.5761C153.05 11.7737 153.678 11.902 154.314 11.9587C155.14 12.0573 156.1 12.151 157.194 12.2397C157.219 12.2398 157.243 12.2421 157.268 12.2466C157.89 12.2753 158.51 12.3489 159.123 12.467C159.433 12.5459 159.572 12.6801 159.542 12.8698C159.52 12.9416 159.484 13.0074 159.436 13.0624C159.388 13.1174 159.33 13.1604 159.265 13.1883C159.012 13.3149 158.741 13.395 158.463 13.4254C157.972 13.4922 157.476 13.5217 156.98 13.5137C156.33 13.5381 155.679 13.4687 155.045 13.3071C154.613 13.1691 154.426 12.924 154.483 12.572H150.364C150.294 12.8998 150.303 13.2414 150.39 13.5645C150.479 13.8296 150.613 14.0743 150.785 14.2858C151.108 14.7002 151.514 15.0284 151.973 15.2447C152.467 15.4824 152.987 15.6541 153.52 15.756C154.059 15.8629 154.604 15.9307 155.152 15.9591C155.689 15.9864 156.164 16 156.577 16C157.232 16 157.965 15.9671 158.778 15.9014C159.545 15.845 160.303 15.6915 161.037 15.4439C161.351 15.3297 161.657 15.1928 161.954 15.0342C162.266 14.8682 162.56 14.6671 162.833 14.4342C163.107 14.2013 163.346 13.9237 163.542 13.6113C163.743 13.2858 163.878 12.9173 163.936 12.5306C164.041 12.0565 164.016 11.5593 163.863 11.1008C163.703 10.7294 163.423 10.435 163.075 10.274C162.605 10.052 162.108 9.90373 161.6 9.83376C160.629 9.68486 159.544 9.56736 158.344 9.48125C157.533 9.41814 156.747 9.34369 155.986 9.2579C155.636 9.23095 155.476 9.12709 155.506 8.94631C155.559 8.82867 155.643 8.73095 155.748 8.66575C155.853 8.60054 155.973 8.57085 156.093 8.58049C156.582 8.50838 157.075 8.47657 157.568 8.48534C158.091 8.47676 158.613 8.52633 159.126 8.63324C159.548 8.73185 159.743 8.87532 159.713 9.06365H163.832C163.84 8.58785 163.687 8.12528 163.403 7.76257C162.97 7.19173 162.391 6.77219 161.739 6.55663C161.157 6.35138 160.557 6.20837 159.949 6.12967C159.294 6.04277 158.634 5.9998 157.973 6.00099C157.289 6.00099 156.6 6.03715 155.905 6.10946C155.235 6.18101 154.572 6.31932 153.925 6.52261L153.923 6.52162Z" stroke="url(#paint0_linear_1963_1591)" stroke-width="1.6" mask="url(#path-1-outside-1_1963_1591)"/>
</g>
<defs>
<filter id="filter0_d_1963_1591" x="0.469607" y="0.610476" width="168.92" height="20.779" filterUnits="userSpaceOnUse" color-interpolation-filters="sRGB">
<feFlood flood-opacity="0" result="BackgroundImageFix"/>
<feColorMatrix in="SourceAlpha" type="matrix" values="0 0 0 0 0 0 0 0 0 0 0 0 0 0 0 0 0 0 127 0" result="hardAlpha"/>
<feOffset/>
<feGaussianBlur stdDeviation="2.29486"/>
<feColorMatrix type="matrix" values="0 0 0 0 0.627451 0 0 0 0 0.321569 0 0 0 0 0.894118 0 0 0 0.7 0"/>
<feBlend mode="normal" in2="BackgroundImageFix" result="effect1_dropShadow_1963_1591"/>
<feBlend mode="normal" in="SourceGraphic" in2="effect1_dropShadow_1963_1591" result="shape"/>
</filter>
<linearGradient id="paint0_linear_1963_1591" x1="6" y1="11.4189" x2="164" y2="11.4189" gradientUnits="userSpaceOnUse">
<stop stop-color="#A052E4"/>
<stop offset="1" stop-color="#0AAFFD"/>
</linearGradient>
</defs>
</svg>
