<svg width="26" height="26" viewBox="0 0 26 26" fill="none" xmlns="http://www.w3.org/2000/svg">
<path d="M14.9143 5.74332L6.12373 14.5339C4.43441 16.2232 4.43441 18.9597 6.12373 20.6491C7.81305 22.3384 10.5496 22.3384 12.2389 20.6491L21.7939 11.0941C22.8487 10.0392 22.8487 8.32698 21.7939 7.27211C20.739 6.21725 19.0267 6.21725 17.9719 7.27211L9.94571 15.2983C9.52529 15.7187 9.52147 16.4028 9.94571 16.8271C10.37 17.2513 11.0541 17.2475 11.4745 16.8271L18.7363 9.5653L19.8829 10.7119L12.6211 17.9737C11.5662 19.0285 9.85399 19.0285 8.79912 17.9737C7.74425 16.9188 7.74425 15.2066 8.79912 14.1517L16.8253 6.12552C18.5146 4.4362 21.2511 4.4362 22.9405 6.12552C24.6298 7.81484 24.6298 10.5514 22.9405 12.2407L13.3855 21.7957C11.0617 24.1194 7.29708 24.1156 4.97713 21.7957C2.65719 19.4757 2.65337 15.7111 4.97713 13.3873L13.7677 4.59673L14.9143 5.74332Z" fill="#6E6E86"/>
</svg>
