<svg width="20" height="20" viewBox="0 0 20 20" fill="none" xmlns="http://www.w3.org/2000/svg">
<path d="M10.0005 19.9998C8.02268 19.9998 6.08928 19.4133 4.44479 18.3145C2.8003 17.2156 1.51857 15.6539 0.761697 13.8266C0.00482111 11.9993 -0.193212 9.98867 0.19264 8.04886C0.578492 6.10905 1.5309 4.32722 2.92943 2.92869C4.32795 1.53017 6.10978 0.57776 8.04959 0.191908C9.9894 -0.193945 12.0001 0.00408869 13.8273 0.760965C15.6546 1.51784 17.2164 2.79957 18.3152 4.44406C19.414 6.08855 20.0005 8.02195 20.0005 9.99976C19.9977 12.6511 18.9432 15.1929 17.0684 17.0677C15.1937 18.9424 12.6518 19.9969 10.0005 19.9998ZM10.0005 1.42833C8.30523 1.42833 6.64803 1.93104 5.23846 2.87288C3.8289 3.81472 2.73028 5.15339 2.08153 6.71962C1.43277 8.28584 1.26303 10.0093 1.59376 11.672C1.92449 13.3347 2.74084 14.8619 3.93958 16.0607C5.13831 17.2594 6.6656 18.0758 8.32829 18.4065C9.99099 18.7372 11.7144 18.5675 13.2806 17.9187C14.8469 17.27 16.1855 16.1714 17.1274 14.7618C18.0692 13.3522 18.5719 11.695 18.5719 9.99976C18.5695 7.72723 17.6656 5.54848 16.0587 3.94156C14.4518 2.33464 12.273 1.43079 10.0005 1.42833Z" fill="#6E6E86"/>
<path d="M7.85707 8.14254C7.66763 8.14254 7.48595 8.06729 7.352 7.93333C7.21804 7.79938 7.14279 7.6177 7.14279 7.42826C7.14279 7.23882 7.06753 7.05714 6.93358 6.92318C6.79962 6.78923 6.61794 6.71397 6.4285 6.71397C6.23906 6.71397 6.05738 6.78923 5.92343 6.92318C5.78947 7.05714 5.71422 7.23882 5.71422 7.42826C5.71422 7.6177 5.63896 7.79938 5.50501 7.93333C5.37105 8.06729 5.18937 8.14254 4.99993 8.14254C4.81049 8.14254 4.62881 8.06729 4.49485 7.93333C4.3609 7.79938 4.28564 7.6177 4.28564 7.42826C4.28564 6.85994 4.51141 6.31489 4.91327 5.91303C5.31514 5.51116 5.86018 5.2854 6.4285 5.2854C6.99682 5.2854 7.54187 5.51116 7.94373 5.91303C8.34559 6.31489 8.57136 6.85994 8.57136 7.42826C8.57136 7.6177 8.4961 7.79938 8.36215 7.93333C8.22819 8.06729 8.04651 8.14254 7.85707 8.14254Z" fill="#6E6E86"/>
<path d="M14.9997 8.14254C14.8102 8.14254 14.6285 8.06729 14.4946 7.93333C14.3606 7.79938 14.2854 7.6177 14.2854 7.42826C14.2854 7.23882 14.2101 7.05714 14.0762 6.92318C13.9422 6.78923 13.7605 6.71397 13.5711 6.71397C13.3816 6.71397 13.2 6.78923 13.066 6.92318C12.932 7.05714 12.8568 7.23882 12.8568 7.42826C12.8568 7.6177 12.7815 7.79938 12.6476 7.93333C12.5136 8.06729 12.3319 8.14254 12.1425 8.14254C11.9531 8.14254 11.7714 8.06729 11.6374 7.93333C11.5035 7.79938 11.4282 7.6177 11.4282 7.42826C11.4282 6.85994 11.654 6.31489 12.0559 5.91303C12.4577 5.51116 13.0028 5.2854 13.5711 5.2854C14.1394 5.2854 14.6844 5.51116 15.0863 5.91303C15.4882 6.31489 15.7139 6.85994 15.7139 7.42826C15.7139 7.6177 15.6387 7.79938 15.5047 7.93333C15.3708 8.06729 15.1891 8.14254 14.9997 8.14254Z" fill="#6E6E86"/>
<path d="M10.7142 17.1428H9.28565C7.96003 17.1412 6.68914 16.614 5.75178 15.6766C4.81443 14.7393 4.28716 13.4684 4.28564 12.1428C4.28564 11.9533 4.3609 11.7716 4.49485 11.6377C4.62881 11.5037 4.81049 11.4285 4.99993 11.4285H14.9999C15.1894 11.4285 15.3711 11.5037 15.505 11.6377C15.639 11.7716 15.7142 11.9533 15.7142 12.1428C15.7127 13.4684 15.1854 14.7393 14.2481 15.6766C13.3107 16.614 12.0398 17.1412 10.7142 17.1428ZM5.78565 12.857C5.9513 13.6632 6.3899 14.3876 7.02748 14.9081C7.66505 15.4286 8.46261 15.7133 9.28565 15.7142H10.7142C11.5373 15.7133 12.3348 15.4286 12.9724 14.9081C13.61 14.3876 14.0486 13.6632 14.2142 12.857H5.78565Z" fill="#6E6E86"/>
</svg>
