<svg width="16" height="16" viewBox="0 0 16 16" fill="none" xmlns="http://www.w3.org/2000/svg">
<path d="M12.0588 10V8H7.13215V6H12.0588V4L15.0148 7L12.0588 10ZM11.0735 9V12C11.0735 12.5523 10.6257 13 10.0735 13H6.14683V14.3712C6.14683 15.1171 5.35954 15.6005 4.69431 15.2629L0.782346 13.2778C0.446481 13.1074 0.234863 12.7627 0.234863 12.3861V1C0.234863 0.447715 0.682579 0 1.23486 0H10.0735C10.6257 0 11.0735 0.447715 11.0735 1V5H10.0881V1H2.20552L5.59934 2.72218C5.93521 2.89262 6.14683 3.2373 6.14683 3.61394V12H10.0881V9H11.0735Z" fill="#6E6E86"/>
</svg>
