<svg width="26" height="21" viewBox="0 0 26 21" fill="none" xmlns="http://www.w3.org/2000/svg">
<path d="M10.1658 1.8264C8.72118 1.8264 7.37101 2.07372 6.11526 2.56837C4.85952 3.06302 3.86106 3.73365 3.11988 4.58026C2.37871 5.42687 2.00812 6.33531 2.00812 7.30559C2.00812 8.08561 2.25833 8.8371 2.75874 9.56005C3.25915 10.283 3.96255 10.9108 4.86896 11.4435L6.24273 12.2426L5.74704 13.4411C6.06805 13.2509 6.36075 13.0654 6.62512 12.8847L7.24827 12.4423L7.99888 12.585C8.73534 12.7182 9.45763 12.7848 10.1658 12.7848C11.6103 12.7848 12.9605 12.5375 14.2162 12.0428C15.472 11.5482 16.4705 10.8775 17.2116 10.0309C17.9528 9.1843 18.3234 8.27586 18.3234 7.30559C18.3234 6.33531 17.9528 5.42687 17.2116 4.58026C16.4705 3.73365 15.472 3.06302 14.2162 2.56837C12.9605 2.07372 11.6103 1.8264 10.1658 1.8264ZM10.1658 0C11.9691 0 13.6379 0.325803 15.1722 0.977408C16.7065 1.62901 17.9174 2.51605 18.8049 3.63853C19.6924 4.761 20.1362 5.98335 20.1362 7.30559C20.1362 8.62782 19.6924 9.85018 18.8049 10.9727C17.9174 12.0951 16.7065 12.9822 15.1722 13.6338C13.6379 14.2854 11.9691 14.6112 10.1658 14.6112C9.35377 14.6112 8.5229 14.5351 7.67315 14.3829C6.50237 15.22 5.18998 15.8288 3.73595 16.2093C3.39605 16.2949 2.99006 16.371 2.51797 16.4376H2.47548C2.37163 16.4376 2.27485 16.3995 2.18515 16.3234C2.09546 16.2473 2.04117 16.1474 2.02228 16.0238C2.01284 15.9952 2.00812 15.9643 2.00812 15.931C2.00812 15.8977 2.01048 15.8668 2.0152 15.8383C2.01992 15.8097 2.02936 15.7812 2.04353 15.7527L2.07893 15.6813L2.1285 15.6029L2.18515 15.5315L2.24888 15.4602L2.30553 15.396C2.35274 15.3389 2.46132 15.22 2.63127 15.0392C2.80122 14.8585 2.92397 14.7182 2.9995 14.6183C3.07503 14.5184 3.18125 14.3805 3.31816 14.2045C3.45506 14.0285 3.57308 13.8454 3.67222 13.6552C3.77136 13.4649 3.86814 13.2556 3.96255 13.0273C2.79178 12.3424 1.87122 11.5006 1.20085 10.5018C0.530493 9.50297 0.195312 8.43757 0.195312 7.30559C0.195312 5.98335 0.639073 4.761 1.52659 3.63853C2.41411 2.51605 3.62501 1.62901 5.15929 0.977408C6.69357 0.325803 8.36239 0 10.1658 0ZM21.8074 16.6801C21.9018 16.9084 21.9986 17.1177 22.0977 17.308C22.1969 17.4982 22.3149 17.6813 22.4518 17.8573C22.5887 18.0333 22.6949 18.1712 22.7704 18.2711C22.846 18.371 22.9687 18.5113 23.1387 18.692C23.3086 18.8728 23.4172 18.9917 23.4644 19.0487C23.4738 19.0583 23.4927 19.0797 23.5211 19.113C23.5494 19.1463 23.5706 19.17 23.5848 19.1843C23.5989 19.1986 23.6178 19.2224 23.6414 19.2556C23.665 19.2889 23.6816 19.3151 23.691 19.3341L23.7264 19.4055L23.7547 19.4911L23.7618 19.5838L23.7477 19.6766C23.7193 19.8097 23.658 19.9144 23.5635 19.9905C23.4691 20.0666 23.3653 20.0999 23.252 20.0904C22.7799 20.0238 22.3739 19.9477 22.034 19.8621C20.58 19.4816 19.2676 18.8728 18.0968 18.0357C17.247 18.1879 16.4162 18.264 15.6042 18.264C13.0455 18.264 10.8172 17.6361 8.91945 16.3805C9.46707 16.4185 9.8825 16.4376 10.1658 16.4376C11.6859 16.4376 13.1446 16.2235 14.542 15.7955C15.9394 15.3674 17.1857 14.7539 18.2809 13.9548C19.4611 13.0797 20.3675 12.0713 21.0001 10.9298C21.6327 9.78835 21.949 8.58026 21.949 7.30559C21.949 6.57313 21.8404 5.85018 21.6233 5.13674C22.8412 5.81213 23.8043 6.65874 24.5124 7.67658C25.2206 8.69441 25.5746 9.78835 25.5746 10.9584C25.5746 12.0999 25.2394 13.1677 24.5691 14.1617C23.8987 15.1558 22.9782 15.9952 21.8074 16.6801Z" fill="#6E6E86"/>
</svg>
