<svg width="21" height="21" viewBox="0 0 21 21" fill="none" xmlns="http://www.w3.org/2000/svg">
<path d="M10.46 20.1496C7.79568 20.1496 5.24045 19.0912 3.35646 17.2072C1.47247 15.3232 0.414063 12.768 0.414062 10.1036C0.414063 7.43924 1.47247 4.884 3.35646 3.00002C5.24045 1.11603 7.79568 0.0576172 10.46 0.0576172C13.1244 0.0576172 15.6796 1.11603 17.5636 3.00002C19.4476 4.884 20.506 7.43924 20.506 10.1036C20.506 12.768 19.4476 15.3232 17.5636 17.2072C15.6796 19.0912 13.1244 20.1496 10.46 20.1496ZM6.94395 9.099C7.3436 9.099 7.72689 8.94023 8.00948 8.65764C8.29208 8.37504 8.45084 7.99175 8.45084 7.5921C8.45084 7.19245 8.29208 6.80916 8.00948 6.52656C7.72689 6.24396 7.3436 6.0852 6.94395 6.0852C6.54429 6.0852 6.16101 6.24396 5.87841 6.52656C5.59581 6.80916 5.43705 7.19245 5.43705 7.5921C5.43705 7.99175 5.59581 8.37504 5.87841 8.65764C6.16101 8.94023 6.54429 9.099 6.94395 9.099ZM13.9761 9.099C14.3758 9.099 14.7591 8.94023 15.0417 8.65764C15.3243 8.37504 15.483 7.99175 15.483 7.5921C15.483 7.19245 15.3243 6.80916 15.0417 6.52656C14.7591 6.24396 14.3758 6.0852 13.9761 6.0852C13.5765 6.0852 13.1932 6.24396 12.9106 6.52656C12.628 6.80916 12.4692 7.19245 12.4692 7.5921C12.4692 7.99175 12.628 8.37504 12.9106 8.65764C13.1932 8.94023 13.5765 9.099 13.9761 9.099ZM16.1461 12.1128H4.77402C5.18819 13.2902 5.95764 14.3099 6.97613 15.0313C7.99463 15.7527 9.21195 16.1401 10.46 16.1401C11.7081 16.1401 12.9255 15.7527 13.9439 15.0313C14.9624 14.3099 15.7319 13.2902 16.1461 12.1128Z" fill="#6E6E86"/>
</svg>
