<svg width="25" height="21" viewBox="0 0 25 21" fill="none" xmlns="http://www.w3.org/2000/svg">
<path fill-rule="evenodd" clip-rule="evenodd" d="M4.28638 1.5C4.28638 1.22386 4.51024 1 4.78638 1H22.5062C22.7823 1 23.0062 1.22386 23.0062 1.5V15.151C23.0062 15.4272 22.7823 15.651 22.5062 15.651H20.7198V4.85431C20.7198 4.02588 20.0483 3.35431 19.2198 3.35431H4.28638V1.5ZM3.28638 3.35431V1.5C3.28638 0.671574 3.95795 0 4.78638 0H22.5062C23.3346 0 24.0062 0.671574 24.0062 1.5V15.151C24.0062 15.9795 23.3346 16.651 22.5062 16.651H20.7198V18.5053C20.7198 19.3338 20.0482 20.0053 19.2198 20.0053H1.5C0.67157 20.0053 0 19.3338 0 18.5053V4.85431C0 4.02588 0.671573 3.35431 1.5 3.35431H3.28638ZM1 4.85431C1 4.57817 1.22386 4.35431 1.5 4.35431H19.2198C19.496 4.35431 19.7198 4.57817 19.7198 4.85431V13.5949L13.9766 14.5717C13.8237 14.5977 13.6667 14.5635 13.5385 14.4763L7.78781 10.5642C7.36516 10.2766 6.81941 10.2423 6.36408 10.4746L1 13.2115V4.85431ZM1 14.1096V18.5053C1 18.7815 1.22386 19.0053 1.5 19.0053H19.2198C19.496 19.0053 19.7198 18.7815 19.7198 18.5053V14.4064L14.1107 15.3604C13.754 15.421 13.3877 15.3413 13.0885 15.1377L7.33783 11.2256C7.1567 11.1024 6.9228 11.0877 6.72766 11.1873L1 14.1096ZM13.6467 6.49021C12.6651 6.49021 11.8556 7.30449 11.8556 8.32607C11.8556 9.34765 12.6651 10.1619 13.6467 10.1619C14.6283 10.1619 15.4377 9.34765 15.4377 8.32607C15.4377 7.30449 14.6283 6.49021 13.6467 6.49021ZM11.0556 8.32607C11.0556 6.87799 12.208 5.69021 13.6467 5.69021C15.0853 5.69021 16.2377 6.87799 16.2377 8.32607C16.2377 9.77415 15.0853 10.9619 13.6467 10.9619C12.208 10.9619 11.0556 9.77415 11.0556 8.32607Z" fill="#6E6E86"/>
</svg>
