<svg width="35" height="35" viewBox="0 0 35 35" fill="none" xmlns="http://www.w3.org/2000/svg">
<rect x="0.49" y="0.49" width="34.02" height="34.02" rx="6.51" fill="#1E192F" stroke="#352C59" stroke-width="0.98"/>
<path d="M18.4625 6.79004C18.4625 6.25846 18.0316 5.82754 17.5 5.82754C16.9684 5.82754 16.5375 6.25846 16.5375 6.79004H18.4625ZM16.5375 6.79004V7.98004H18.4625V6.79004H16.5375Z" fill="#009EEC"/>
<path d="M25.9358 23.4496H9.06503C8.76914 23.4496 8.58385 23.1297 8.73105 22.8731L11.3026 18.3893C11.637 17.8064 11.8129 17.146 11.8129 16.4739V13.8307C11.8129 12.3666 12.3774 10.959 13.3891 9.9007C15.6291 7.55731 19.3717 7.55731 21.6117 9.9007C22.6233 10.959 23.1879 12.3666 23.1879 13.8307V16.4739C23.1879 17.146 23.3638 17.8064 23.6982 18.3893L26.2697 22.8731C26.4169 23.1297 26.2316 23.4496 25.9358 23.4496Z" fill="#009EEC"/>
<path d="M26.2697 22.8731L27.1047 22.3942H27.1047L26.2697 22.8731ZM23.6982 18.3893L22.8633 18.8682V18.8682L23.6982 18.3893ZM11.3026 18.3893L10.4677 17.9105V17.9105L11.3026 18.3893ZM8.73105 22.8731L7.89613 22.3942L7.89613 22.3942L8.73105 22.8731ZM13.3891 9.9007L12.6933 9.23563L13.3891 9.9007ZM21.6117 9.9007L20.916 10.5658L21.6117 9.9007ZM9.06503 24.4121H25.9358V22.4871H9.06503V24.4121ZM27.1047 22.3942L24.5331 17.9105L22.8633 18.8682L25.4348 23.3519L27.1047 22.3942ZM24.1504 16.4739V13.8307H22.2254V16.4739H24.1504ZM10.8504 13.8307V16.4739H12.7754V13.8307H10.8504ZM10.4677 17.9105L7.89613 22.3942L9.56598 23.3519L12.1375 18.8682L10.4677 17.9105ZM10.8504 16.4739C10.8504 16.978 10.7184 17.4732 10.4677 17.9105L12.1375 18.8682C12.5555 18.1395 12.7754 17.314 12.7754 16.4739H10.8504ZM12.6933 9.23563C11.5105 10.473 10.8504 12.1189 10.8504 13.8307H12.7754C12.7754 12.6144 13.2444 11.445 14.0848 10.5658L12.6933 9.23563ZM22.3075 9.23563C19.6884 6.49567 15.3124 6.49567 12.6933 9.23563L14.0848 10.5658C15.9457 8.61895 19.055 8.61895 20.916 10.5658L22.3075 9.23563ZM24.1504 13.8307C24.1504 12.1189 23.4903 10.473 22.3075 9.23563L20.916 10.5658C21.7564 11.445 22.2254 12.6144 22.2254 13.8307H24.1504ZM24.5331 17.9105C24.2823 17.4732 24.1504 16.978 24.1504 16.4739H22.2254C22.2254 17.314 22.4453 18.1395 22.8633 18.8682L24.5331 17.9105ZM25.9358 24.4121C26.9713 24.4121 27.6199 23.2925 27.1047 22.3942L25.4348 23.3519C25.214 22.9669 25.4919 22.4871 25.9358 22.4871V24.4121ZM9.06503 22.4871C9.50885 22.4871 9.78679 22.9669 9.56598 23.3519L7.89613 22.3942C7.38091 23.2925 8.02944 24.4121 9.06503 24.4121V22.4871Z" fill="#009EEC"/>
<path d="M15.2246 27.0195V26.057C14.8393 26.057 14.4911 26.2869 14.3396 26.6412C14.1881 26.9955 14.2626 27.406 14.5288 27.6846L15.2246 27.0195ZM19.7746 27.0195L20.4704 27.6846C20.7366 27.406 20.8111 26.9955 20.6596 26.6412C20.5082 26.2869 20.16 26.057 19.7746 26.057V27.0195ZM15.2246 27.982H19.7746V26.057H15.2246V27.982ZM19.0788 26.3545L18.1954 27.2787L19.5869 28.6088L20.4704 27.6846L19.0788 26.3545ZM16.8038 27.2787L15.9204 26.3545L14.5288 27.6846L15.4123 28.6088L16.8038 27.2787ZM18.1954 27.2787C17.8163 27.6753 17.1829 27.6753 16.8038 27.2787L15.4123 28.6088C16.5495 29.7986 18.4497 29.7986 19.5869 28.6088L18.1954 27.2787Z" fill="#009EEC"/>
</svg>
