<svg width="193" height="185" viewBox="0 0 193 185" fill="none" xmlns="http://www.w3.org/2000/svg">
<path d="M113.203 118.558C113.203 121.256 107.722 123.457 100.959 123.457C94.1909 123.457 88.7101 121.265 88.7101 118.558C88.7101 115.846 94.1909 113.658 100.959 113.658C107.713 113.667 113.203 115.846 113.203 118.558ZM72.1123 88.6019C66.8002 88.6019 62.4688 92.9333 62.4688 98.2587C62.4688 103.571 66.8002 107.898 72.1123 107.898C77.4334 107.898 81.7648 103.571 81.7648 98.2587C81.7648 92.9333 77.4378 88.6019 72.1123 88.6019ZM129.792 88.6019C124.475 88.6019 120.139 92.9333 120.139 98.2587C120.139 103.571 124.475 107.898 129.792 107.898C135.104 107.898 139.435 103.571 139.435 98.2587C139.435 92.9333 135.104 88.6019 129.792 88.6019ZM193.001 113.139C193.001 125.836 185.075 136.638 174.14 140.379C160.125 167.024 132.122 184.221 101.083 184.221C70.0665 184.221 42.1077 167.077 28.0883 140.49C16.9847 136.868 8.90328 125.973 8.90328 113.152C8.90328 103.975 13.0527 95.7824 19.4744 90.5279C20.0469 85.3666 20.9655 79.7039 22.2747 74.3739C10.5586 70.3976 3.01418 66.5455 2.38399 66.2082C0.808539 65.3828 -0.127859 63.7008 0.014154 61.9168C0.156167 60.1416 1.3544 58.6238 3.04524 58.0602C3.20057 58.007 18.5158 52.8146 36.5381 37.708C39.9109 34.881 43.2438 31.7878 46.4613 28.7967C61.1374 15.1856 76.315 1.10415 104.434 0.797938L106.337 0.789062C123.548 0.789062 134.292 3.90447 140.975 19.8144C141.681 19.3617 142.4 18.9445 143.177 18.5851C157.529 11.8927 176.936 23.1428 186.535 43.7036C194.949 61.757 182.732 90.4968 182.754 90.7631C188.989 96.022 193.001 104.086 193.001 113.139ZM175.249 113.139C175.249 107.498 171.499 102.91 166.671 102.364C165.282 104.645 163.724 106.846 161.971 108.941C163.356 104.21 164.243 99.3638 164.585 94.522C153.166 92.4451 141.344 82.5752 134.514 67.9168C134.252 67.3709 134.052 66.8251 133.821 66.2792C128.394 69.6565 121.582 72.9671 113.119 76.2956C101.167 81.0042 87.8758 83.3873 73.6345 83.3873C61.306 83.3873 49.6122 81.6299 39.365 79.2379C38.4153 83.2142 37.6875 87.5678 37.2038 91.7705C37.3591 97.522 38.2778 103.309 39.9287 108.941C38.1757 106.833 36.6224 104.64 35.2378 102.364C30.4005 102.91 26.646 107.485 26.646 113.139C26.646 119.148 30.8887 124.007 36.1698 124.007C37.4878 124.007 38.7349 123.71 39.8798 123.173C48.5027 148.336 72.6183 166.469 101.07 166.469C129.503 166.469 153.588 148.363 162.251 123.253C163.32 123.737 164.496 124.03 165.717 124.03C171.011 124.025 175.249 119.148 175.249 113.139Z" fill="#6E6E86"/>
</svg>
